# Blender 4.3.0
# www.blender.org
mtllib Floor_Squared_A.mtl
o Floor_Squared_A
v 1.289841 0.255912 -1.234446
v 1.289841 0.255912 -2.330876
v 1.412252 0.329735 -2.261992
v 1.481132 0.329735 -1.358829
v 2.209000 0.329701 -2.261991
v -1.070462 0.329735 -0.865780
v -1.340927 0.255912 -1.234446
v -2.302448 0.329735 -0.944544
v -1.360009 0.329735 -0.863140
v -1.340927 0.255911 1.200319
v 1.002524 0.304769 0.914518
v 1.289841 0.255911 1.200319
v 1.359999 0.329700 0.815930
v 2.205063 0.329700 0.892346
v 2.337134 0.255867 1.195424
v -0.935901 0.329734 0.957809
v -1.340926 0.255912 -2.330876
v -0.986879 0.329735 -2.186849
v -1.036974 0.329735 -1.308734
v 1.289841 0.255911 2.352244
v 1.454611 0.329734 1.231235
v 2.208999 0.329700 1.324702
v 2.208999 0.329700 2.227861
v 1.412251 0.329734 2.227861
v -2.357832 0.255912 -1.234446
v -2.284751 0.329735 -1.358829
v -2.284750 0.329735 -2.261992
v -2.357831 0.255912 -2.330876
v 0.941396 0.329701 -2.261991
v 2.331378 0.255867 -2.330876
v -1.500527 0.329701 -1.433971
v -1.340927 0.255911 2.352244
v -1.488003 0.329700 2.227861
v -1.556199 0.329700 1.317243
v 0.956313 0.329701 -1.485630
v 0.891300 0.329700 2.158981
v 0.915948 0.302139 1.436924
v -1.036974 0.329734 2.227861
v -1.036974 0.329734 1.324702
v 1.639201 0.329735 -0.944543
v 2.337134 0.255912 -1.229548
v 2.206788 0.329735 -0.944543
v -2.357832 0.255911 1.200319
v -2.302448 0.329700 0.910494
v -1.513622 0.329700 1.009710
v 2.208999 0.329701 -1.358828
v 0.931724 0.329701 -1.012276
v -2.284751 0.329734 1.324701
v -1.506788 0.329701 -2.205635
v -1.002495 0.293865 0.031398
v -0.704420 0.329729 -0.242476
v -0.686406 0.329729 0.479898
v -0.122672 0.329719 0.292111
v 1.358551 0.329729 -0.663619
v 2.331378 0.255867 2.352244
v -2.357832 0.255911 2.352244
v -2.284751 0.329734 2.227861
v -2.418863 0.198074 -2.418863
v -2.418863 0.198074 -1.255120
v -2.418863 0.198073 1.219480
v -2.418863 0.198073 2.418863
v 1.310619 0.198074 -1.255120
v -1.363190 0.198074 -1.255120
v 1.310619 0.198073 1.219480
v 1.160068 0.225255 1.093531
v 2.418863 0.198028 2.418863
v 1.310619 0.198073 2.418863
v -1.363190 0.198073 2.418863
v -1.363190 0.198074 -2.418863
v 1.310619 0.198074 -2.418863
v 2.418863 0.198029 -2.418863
v 2.418863 0.198074 -1.250141
v -1.363190 0.198073 1.219480
v 2.418863 0.198028 1.214505
v -2.418863 0.000000 2.418863
v -0.026286 0.000000 2.418863
v 2.418863 0.000000 2.418863
v -2.418863 0.000000 -0.017820
v -2.418863 -0.000000 -2.418863
v -0.026285 -0.000000 -2.418863
v 2.418863 -0.000000 -2.418863
v 2.418863 0.000000 -0.017818
v -0.005803 0.000000 -0.003934
vn -0.5164 0.8563 -0.0000
vn -0.0000 1.0000 -0.0000
vn -0.0000 0.9805 -0.1963
vn 0.0168 0.9808 -0.1941
vn -0.0012 0.9798 0.2001
vn -0.0014 0.9798 0.2001
vn -0.0012 0.9798 0.2000
vn -0.0168 0.9825 0.1855
vn 0.0011 0.9717 0.2362
vn -0.1793 0.9838 -0.0000
vn -0.2041 0.9789 -0.0000
vn -0.2391 0.9709 -0.0136
vn -0.4089 0.9126 -0.0000
vn 0.1218 0.1398 -0.9827
vn -0.0000 0.8599 0.5104
vn -0.0000 0.6822 -0.7311
vn -0.0000 0.6824 -0.7310
vn -0.0000 0.6822 -0.7312
vn 0.4719 0.8810 -0.0353
vn -0.0000 0.7093 0.7049
vn -0.0165 0.9057 -0.4237
vn 0.1011 0.9943 -0.0345
vn 0.0003 0.9682 -0.2501
vn -0.0000 0.9681 -0.2507
vn -0.0000 0.9680 -0.2508
vn 0.0012 0.9687 -0.2481
vn -0.0000 0.9691 -0.2468
vn -0.0303 0.9700 0.2412
vn 0.9682 0.2503 -0.0000
vn -0.3450 0.9382 0.0263
vn 0.2379 0.9713 -0.0029
vn 0.2379 0.9713 -0.0032
vn 0.2379 0.9713 -0.0031
vn -0.0258 0.9356 -0.3522
vn 0.2018 0.9794 -0.0000
vn -0.2903 0.9567 0.0214
vn -0.5331 0.8458 -0.0227
vn -0.0023 0.8674 -0.4976
vn -0.0000 0.8600 -0.5104
vn -0.0000 0.8599 -0.5104
vn -0.0055 0.8411 -0.5409
vn 0.0312 0.9453 0.3247
vn 0.0343 0.8803 -0.4732
vn 0.3243 0.9460 -0.0000
vn 0.0226 0.9669 0.2541
vn 0.1821 0.9833 -0.0000
vn 0.0120 0.9421 0.3350
vn 0.0230 0.9874 -0.1566
vn 0.0163 0.9992 -0.0376
vn -0.0000 0.9326 0.3610
vn 0.0207 0.9463 0.3226
vn 0.0206 0.9463 0.3226
vn 0.3646 0.9307 0.0299
vn -0.0778 0.9959 0.0457
vn 0.9961 0.0490 -0.0735
vn -0.0650 0.9973 -0.0339
vn -0.0599 0.9961 0.0652
vn -0.0215 0.9977 -0.0646
vn -0.1140 0.9869 -0.1139
vn 0.4990 0.8666 -0.0000
vn 0.5155 0.8569 -0.0027
vn 0.4936 0.8697 0.0005
vn 0.5011 0.8654 0.0025
vn 0.5166 0.8563 -0.0000
vn 0.5166 0.8562 -0.0000
vn -0.0024 0.8615 0.5077
vn -0.0000 0.8685 0.4957
vn -0.0003 1.0000 -0.0003
vn 0.0013 0.9999 0.0100
vn 0.0013 1.0000 0.0099
vn 0.4044 0.9146 -0.0033
vn 0.4197 0.9077 -0.0000
vn -0.0000 0.8600 0.5102
vn -0.0000 0.8600 0.5104
vn -0.0000 0.8601 0.5102
vn 0.2190 0.9757 -0.0042
vn 0.2072 0.9783 -0.0000
vn -0.2360 0.9717 -0.0000
vn -0.7998 0.6003 -0.0000
vn -0.7999 0.6001 -0.0000
vn -0.7107 0.7035 -0.0000
vn -0.6879 0.7258 -0.0000
vn -0.7106 0.7035 -0.0000
vn -0.7247 0.6890 -0.0000
vn -0.7247 0.6891 -0.0000
vn -0.7249 0.6889 -0.0000
vn -0.7348 0.6783 0.0007
vn -0.0000 -0.3366 0.9417
vn -0.6396 0.0307 0.7681
vn -0.6414 0.0304 0.7666
vn -0.6395 0.0317 0.7681
vn -0.6442 0.0307 0.7643
vn -0.0000 0.7551 0.6556
vn -0.0000 0.8356 -0.5493
vn 0.0043 0.3394 -0.9406
vn 0.0043 0.3393 -0.9407
vn 0.9332 -0.3592 -0.0000
vn 0.9333 -0.3592 -0.0000
vn -0.9411 -0.3381 -0.0000
vn 0.9411 0.3381 -0.0000
vn 0.5637 0.8260 -0.0015
vn 0.5639 0.8258 0.0014
vn 0.5639 0.8259 0.0014
vn -0.0000 -0.3145 -0.9493
vn -0.0000 0.3145 0.9493
vn 0.0044 0.3174 0.9483
vn 0.0044 0.3173 0.9483
vn -0.0000 0.3366 -0.9417
vn -0.0000 -0.0000 1.0000
vn -1.0000 -0.0000 -0.0000
vn -0.0000 -0.0000 -1.0000
vn 1.0000 -0.0000 -0.0000
vn -0.0000 -1.0000 -0.0000
vt 0.623282 0.382102
vt 0.517795 0.394470
vt 0.510903 0.382186
vt 0.610365 0.401459
vt 0.517795 0.476108
vt 0.660900 0.139977
vt 0.623282 0.112545
vt 0.652828 0.013750
vt 0.661171 0.110309
vt 0.872834 0.112360
vt 0.872833 0.381917
vt 0.843429 0.352332
vt 0.841100 0.475465
vt 0.833267 0.388883
vt 0.872332 0.489227
vt 0.847809 0.153626
vt 0.525497 0.148642
vt 0.510903 0.112629
vt 0.615500 0.143442
vt 0.990900 0.381830
vt 0.875834 0.398545
vt 0.289921 0.502017
vt 0.289921 0.596760
vt 0.283686 0.579211
vt 0.977983 0.475767
vt 0.977983 0.394129
vt 0.610365 0.015595
vt 0.623282 0.008350
vt 0.221521 0.598699
vt 0.229590 0.502017
vt 0.229590 0.606264
vt 0.134536 0.537665
vt 0.142602 0.502017
vt 0.142602 0.771707
vt 0.209417 0.596168
vt 0.217487 0.502017
vt 0.217487 0.608789
vt 0.209417 0.514490
vt 0.602664 0.095955
vt 0.517796 0.015663
vt 0.990900 0.112273
vt 0.884650 0.090041
vt 0.977984 0.096960
vt 0.124698 0.774004
vt 0.116721 0.535464
vt 0.124698 0.504297
vt 0.517795 0.346225
vt 0.597369 0.347694
vt 0.970924 0.340756
vt 0.896979 0.343431
vt 0.885414 0.143242
vt 0.977984 0.143174
vt 0.652827 0.417624
vt 0.652827 0.475781
vt 0.623784 0.489411
vt 0.872834 0.008165
vt 0.853129 0.094427
vt 0.842960 0.013609
vt 0.099185 0.838486
vt 0.106690 0.626932
vt 0.106690 0.876542
vt 0.610365 0.476039
vt 0.645885 0.345139
vt 0.885414 0.475835
vt 0.885414 0.015391
vt 0.523572 0.095372
vt 0.752939 0.146996
vt 0.724786 0.177436
vt 0.201713 0.502017
vt 0.205383 0.597030
vt 0.201713 0.689032
vt 0.798826 0.179227
vt 0.779579 0.237003
vt 0.681621 0.388846
vt 0.510903 0.488905
vt 0.990900 0.488549
vt 0.977984 0.015322
vt 0.990901 0.008077
vt 0.146635 0.502017
vt 0.153612 0.721909
vt 0.146635 0.751630
vt 0.153609 0.531730
vt 0.510903 0.008433
vt 0.502017 0.002384
vt 0.621295 0.002296
vt 0.874929 0.002108
vt 0.997860 0.002017
vt 0.192739 0.712333
vt 0.192739 0.502017
vt 0.197679 0.653620
vt 0.130502 0.502017
vt 0.130502 0.776136
vt 0.183511 0.617918
vt 0.180340 0.631076
vt 0.177592 0.615502
vt 0.188705 0.647635
vt 0.997860 0.384152
vt 0.997860 0.497706
vt 0.997860 0.110185
vt 0.502017 0.110552
vt 0.502016 0.384519
vt 0.502017 0.498074
vt 0.253415 0.617742
vt 0.259486 0.502017
vt 0.259486 0.615633
vt 0.253414 0.510374
vt 0.106690 0.988948
vt 0.112687 0.878671
vt 0.112687 0.997977
vt 0.112687 0.624977
vt 0.112687 0.502017
vt 0.106690 0.508837
vt 0.173558 0.503981
vt 0.167448 0.755714
vt 0.167448 0.502017
vt 0.173558 0.753594
vt 0.233624 0.626951
vt 0.239485 0.502017
vt 0.239485 0.624977
vt 0.233624 0.508857
vt 0.621805 0.497985
vt 0.874419 0.497798
vt 0.157646 0.773864
vt 0.163414 0.502017
vt 0.163414 0.776119
vt 0.157646 0.504173
vt 0.243519 0.614422
vt 0.249380 0.504126
vt 0.249380 0.623432
vt 0.243519 0.502017
vt 0.273624 0.612528
vt 0.279653 0.502017
vt 0.279653 0.610245
vt 0.273624 0.508275
vt 0.188705 0.510675
vt 0.183087 0.502017
vt 0.263520 0.606264
vt 0.269590 0.504318
vt 0.269590 0.612539
vt 0.263520 0.502017
vt 0.026348 0.610245
vt 0.026348 0.502017
vt 0.046623 0.502017
vt 0.046623 0.747305
vt 0.026348 0.884364
vt 0.026352 0.997982
vt 0.046623 0.997983
vt 0.095151 0.502017
vt 0.074942 0.751826
vt 0.074942 0.502017
vt 0.095151 0.624978
vt 0.095151 0.878675
vt 0.074942 0.997982
vt 0.095151 0.997982
vt 0.050657 0.997968
vt 0.070908 0.752679
vt 0.070908 0.997951
vt 0.050657 0.889747
vt 0.050657 0.615644
vt 0.070908 0.502017
vt 0.050662 0.502033
vt 0.002022 0.997980
vt 0.022314 0.751824
vt 0.022314 0.997977
vt 0.002017 0.878163
vt 0.002022 0.625489
vt 0.022314 0.502017
vt 0.002022 0.502019
vt 0.497983 0.002017
vt 0.497983 0.247305
vt 0.250403 0.249405
vt 0.251827 0.002017
vt 0.497983 0.497983
vt 0.002017 0.002017
vt 0.251827 0.497983
vt 0.002017 0.247305
vt 0.002017 0.497983
s 1
usemtl Mat_Dungeon
f 1/1/1 3/2/1 2/3/1
f 4/4/2 5/5/2 3/2/2
f 6/6/3 1/1/3 7/7/3
f 8/8/4 9/9/4 7/7/3
f 10/10/5 12/11/5 11/12/6
f 12/11/7 14/13/8 13/14/8
f 12/11/5 15/15/9 14/13/9
f 16/16/10 7/7/10 10/10/10
f 7/7/10 18/17/11 17/18/11
f 7/7/12 19/19/12 18/17/11
f 20/20/13 21/21/13 12/11/13
f 22/22/14 12/23/14 21/24/14
f 23/25/2 21/21/2 24/26/2
f 7/7/15 26/27/15 25/28/15
f 27/29/16 17/30/16 28/31/16
f 29/32/17 2/33/17 17/34/17
f 3/35/18 30/36/18 2/37/18
f 3/35/18 5/38/18 30/36/18
f 31/39/2 27/40/2 26/27/2
f 32/41/19 34/42/19 33/43/19
f 1/44/20 19/45/20 7/46/20
f 29/47/21 17/18/21 18/17/21
f 35/48/2 18/17/2 19/19/2
f 36/49/22 12/11/22 37/50/22
f 36/49/2 39/51/2 38/52/2
f 40/53/23 42/54/24 41/55/25
f 1/1/26 40/53/23 41/55/25
f 8/8/27 7/7/27 25/28/27
f 43/56/28 45/57/28 44/58/28
f 9/59/29 10/60/29 7/61/29
f 8/8/2 45/57/2 9/9/2
f 1/1/30 4/4/30 3/2/30
f 4/4/2 46/62/2 5/5/2
f 12/11/31 47/63/32 11/12/33
f 6/6/34 47/63/34 1/1/34
f 12/11/35 1/1/35 47/63/35
f 16/16/36 6/6/36 7/7/36
f 20/20/37 24/26/37 21/21/37
f 22/64/38 15/15/38 12/11/39
f 39/51/40 12/11/40 10/10/40
f 48/65/40 10/10/40 43/56/40
f 48/65/40 34/42/41 10/10/40
f 23/25/2 22/64/2 21/21/2
f 7/7/42 31/39/42 26/27/42
f 27/40/43 49/66/43 17/18/43
f 31/39/2 49/66/2 27/40/2
f 32/41/44 10/10/44 34/42/44
f 1/1/45 35/48/45 19/19/45
f 35/48/2 29/47/2 18/17/2
f 36/49/46 20/20/46 12/11/46
f 20/20/47 36/49/47 38/52/47
f 39/51/48 37/50/48 12/11/48
f 36/49/49 37/50/49 39/51/49
f 13/14/2 14/13/2 42/54/2
f 43/56/50 10/10/50 45/57/50
f 10/10/50 11/12/51 16/16/52
f 9/9/53 45/57/53 10/10/53
f 8/8/2 44/58/2 45/57/2
f 50/67/54 51/68/54 6/6/54
f 16/69/55 50/70/55 6/71/55
f 52/72/56 50/67/56 16/16/56
f 51/68/57 50/67/57 53/73/57
f 52/72/58 53/73/58 50/67/58
f 1/1/59 54/74/59 40/53/59
f 41/55/60 5/5/60 46/62/60
f 41/55/60 30/75/61 5/5/60
f 14/13/62 41/55/60 42/54/62
f 14/13/62 15/15/63 41/55/60
f 55/76/64 15/15/63 22/64/65
f 55/76/64 22/64/65 23/25/65
f 41/55/66 4/4/66 1/1/66
f 41/55/66 46/62/67 4/4/66
f 47/63/2 6/6/2 51/68/2
f 47/63/2 51/68/2 53/73/2
f 11/12/68 47/63/2 53/73/2
f 11/12/68 53/73/2 52/72/69
f 11/12/68 52/72/69 16/16/70
f 31/39/71 17/18/71 49/66/71
f 31/39/71 7/7/72 17/18/71
f 32/41/73 57/77/74 56/78/15
f 32/41/73 33/43/75 57/77/74
f 20/20/15 38/52/15 32/41/15
f 55/76/15 24/26/15 20/20/15
f 55/76/15 23/25/15 24/26/15
f 33/43/2 48/65/2 57/77/2
f 33/43/2 34/42/2 48/65/2
f 1/1/76 29/47/76 35/48/76
f 1/1/76 2/3/77 29/47/76
f 38/52/78 10/10/78 32/41/78
f 38/52/78 39/51/78 10/10/78
f 43/79/79 8/80/80 25/81/80
f 43/79/79 44/82/79 8/80/80
f 26/27/81 27/40/81 28/83/81
f 26/27/81 28/83/81 25/28/81
f 25/28/81 28/83/81 58/84/82
f 25/28/81 58/84/82 59/85/82
f 43/56/83 25/28/83 59/85/82
f 43/56/81 59/85/82 60/86/82
f 56/78/83 43/56/81 60/86/82
f 56/78/83 60/86/82 61/87/82
f 57/77/81 43/56/81 56/78/83
f 57/77/81 48/65/81 43/56/81
f 13/14/2 40/53/2 54/74/2
f 13/14/2 42/54/2 40/53/2
f 1/1/84 12/11/85 13/14/86
f 1/88/84 13/89/86 54/90/87
f 1/44/88 63/91/88 62/92/88
f 1/44/88 7/46/88 63/91/88
f 12/93/89 65/94/90 64/95/91
f 12/93/89 11/96/92 65/94/90
f 55/76/93 67/97/93 66/98/93
f 55/76/93 20/20/93 67/97/93
f 20/20/93 68/99/93 67/97/93
f 20/20/93 32/41/93 68/99/93
f 32/41/93 61/87/93 68/99/93
f 32/41/93 56/78/93 61/87/93
f 28/83/94 69/100/94 58/84/94
f 28/83/94 17/18/94 69/100/94
f 17/18/94 70/101/94 69/100/94
f 17/18/94 2/3/94 70/101/94
f 2/3/94 71/102/94 70/101/94
f 2/3/94 30/75/94 71/102/94
f 1/103/95 72/104/95 62/105/96
f 1/103/95 41/106/95 72/104/95
f 17/107/97 63/108/97 69/109/97
f 17/107/97 7/61/97 63/108/97
f 7/61/97 73/110/97 63/108/97
f 7/61/97 10/60/97 73/110/97
f 10/60/97 68/111/97 73/110/97
f 10/60/97 32/112/98 68/111/97
f 12/113/99 62/114/99 64/115/99
f 12/113/99 1/116/99 62/114/99
f 12/117/100 67/118/100 64/119/100
f 12/117/100 20/120/100 67/118/100
f 30/75/101 72/121/101 71/102/101
f 30/75/101 41/55/101 72/121/101
f 41/55/101 74/122/102 72/121/101
f 41/55/101 15/15/102 74/122/102
f 15/15/102 66/98/102 74/122/102
f 15/15/103 55/76/103 66/98/103
f 10/123/104 64/124/104 73/125/104
f 10/123/104 12/126/104 64/124/104
f 2/127/100 62/128/100 70/129/100
f 2/127/100 1/130/100 62/128/100
f 10/131/105 60/132/105 73/133/105
f 10/131/105 43/134/105 60/132/105
f 15/135/106 64/95/107 74/136/106
f 15/135/106 12/93/107 64/95/107
f 25/137/108 63/138/108 59/139/108
f 25/137/108 7/140/108 63/138/108
f 68/141/109 61/142/109 75/143/109
f 68/141/109 75/143/109 76/144/109
f 67/145/109 68/141/109 76/144/109
f 66/146/109 67/145/109 76/144/109
f 66/146/109 76/144/109 77/147/109
f 61/148/110 78/149/110 75/150/110
f 61/148/110 60/151/110 78/149/110
f 60/151/110 59/152/110 78/149/110
f 59/152/110 79/153/110 78/149/110
f 59/152/110 58/154/110 79/153/110
f 58/155/111 80/156/111 79/157/111
f 58/155/111 69/158/111 80/156/111
f 69/158/111 70/159/111 80/156/111
f 70/159/111 81/160/111 80/156/111
f 70/159/111 71/161/111 81/160/111
f 71/162/112 82/163/112 81/164/112
f 71/162/112 72/165/112 82/163/112
f 72/165/112 74/166/112 82/163/112
f 74/166/112 77/167/112 82/163/112
f 74/166/112 66/168/112 77/167/112
f 79/169/113 80/170/113 83/171/113
f 78/172/113 79/169/113 83/171/113
f 80/170/113 81/173/113 83/171/113
f 75/174/113 78/172/113 83/171/113
f 81/173/113 82/175/113 83/171/113
f 76/176/113 75/174/113 83/171/113
f 82/175/113 77/177/113 83/171/113
f 77/177/113 76/176/113 83/171/113
